<svg xmlns="http://www.w3.org/2000/svg" width="444" height="409" viewBox="0 0 444 409">
    <defs>
        <filter id="a" width="143.2%" height="147.4%" x="-21.6%" y="-23.6%" filterUnits="objectBoundingBox">
            <feOffset dy="9" in="SourceAlpha" result="shadowOffsetOuter1"/>
            <feGaussianBlur in="shadowOffsetOuter1" result="shadowBlurOuter1" stdDeviation="16.5"/>
            <feColorMatrix in="shadowBlurOuter1" result="shadowMatrixOuter1" values="0 0 0 0 0 0 0 0 0 0.560784314 0 0 0 0 1 0 0 0 0.3 0"/>
            <feMerge>
                <feMergeNode in="shadowMatrixOuter1"/>
                <feMergeNode in="SourceGraphic"/>
            </feMerge>
        </filter>
    </defs>
    <g fill="none" fill-rule="evenodd" filter="url(#a)" transform="translate(31 23)">
        <path fill="#DDE7E9" d="M167.375 242.63v8.767c0 .687-.557 1.251-1.251 1.251h-8.758a1.252 1.252 0 0 1-1.252-1.251v-8.767c0-.687.557-1.251 1.252-1.251h8.758c.694 0 1.251.564 1.251 1.25M188.197 242.63v8.767c0 .687-.564 1.251-1.251 1.251h-8.758a1.252 1.252 0 0 1-1.252-1.251v-8.767c0-.687.557-1.251 1.252-1.251h8.758c.687 0 1.251.564 1.251 1.25M209.012 242.63v8.767a1.25 1.25 0 0 1-1.244 1.251h-8.766a1.256 1.256 0 0 1-1.25-1.251v-8.767c0-.687.563-1.251 1.25-1.251h8.766a1.25 1.25 0 0 1 1.244 1.25M167.375 264.36v8.76c0 .687-.557 1.25-1.251 1.25h-8.758a1.252 1.252 0 0 1-1.252-1.25v-8.76c0-.695.557-1.252 1.252-1.252h8.758c.694 0 1.251.557 1.251 1.252M188.197 264.36v8.76c0 .687-.564 1.25-1.251 1.25h-8.758a1.252 1.252 0 0 1-1.252-1.25v-8.76c0-.695.557-1.252 1.252-1.252h8.758c.687 0 1.251.557 1.251 1.252M167.375 286.082v8.767c0 .687-.557 1.244-1.251 1.244h-8.758a1.246 1.246 0 0 1-1.252-1.244v-8.767c0-.687.557-1.251 1.252-1.251h8.758c.694 0 1.251.564 1.251 1.251M188.197 286.082v8.767a1.25 1.25 0 0 1-1.251 1.244h-8.758a1.246 1.246 0 0 1-1.252-1.244v-8.767c0-.687.557-1.251 1.252-1.251h8.758c.687 0 1.251.564 1.251 1.251"/>
        <path fill="#F66262" d="M247.683 339.574a2.553 2.553 0 1 1 0-5.105 2.553 2.553 0 0 1 0 5.105zm-29.508 4.174h37.167v-13.447h-37.167v13.447z"/>
        <path fill="#1CCE9E" d="M282.008 169.354v28.616c0 .159-.13.29-.29.29h-6.168c-.6 0-1.085.491-1.085 1.084v9.65a2.97 2.97 0 0 1-2.965 2.965 2.97 2.97 0 0 1-2.966-2.965v-9.65c0-.593-.484-1.085-1.085-1.085h-5.67c-.6 0-1.085.492-1.085 1.085v9.65a2.97 2.97 0 0 1-2.965 2.965 2.97 2.97 0 0 1-2.965-2.965v-9.65c0-.593-.485-1.085-1.085-1.085h-6.082a.29.29 0 0 1-.29-.29v-28.615c0-.16.13-.29.29-.29h34.122c.159 0 .29.13.29.29M242.143 172.023v16.456a2.971 2.971 0 0 1-2.965 2.973 2.971 2.971 0 0 1-2.965-2.973v-16.456a2.97 2.97 0 0 1 2.965-2.966 2.97 2.97 0 0 1 2.965 2.966M293.095 172.023v16.456a2.971 2.971 0 0 1-2.965 2.973 2.971 2.971 0 0 1-2.965-2.973v-16.456a2.97 2.97 0 0 1 2.965-2.966 2.97 2.97 0 0 1 2.965 2.966M273.047 159.653a2.647 2.647 0 0 1-2.64-2.647 2.645 2.645 0 0 1 2.64-2.64 2.647 2.647 0 0 1 2.647 2.64 2.649 2.649 0 0 1-2.647 2.647m-16.866 0a2.642 2.642 0 0 1-2.64-2.647 2.64 2.64 0 0 1 2.64-2.64 2.645 2.645 0 0 1 2.64 2.64 2.647 2.647 0 0 1-2.64 2.647m16.96-7.956a1.068 1.068 0 0 1-.477-.565 1.065 1.065 0 0 1-.73-.065 17.33 17.33 0 0 0-7.32-1.606c-2.553 0-5.012.543-7.312 1.606-.238.109-.499.13-.73.065a1.082 1.082 0 0 1-.485.565 17.401 17.401 0 0 0-8.498 11.573c-.029.123.03.203.058.246.044.05.109.109.224.109h33.486a.268.268 0 0 0 .224-.109.289.289 0 0 0 .066-.246 17.411 17.411 0 0 0-8.506-11.573"/>
        <path fill="#F66262" d="M345.494 171.119a9.408 9.408 0 0 1-6.697 2.77 9.42 9.42 0 0 1-6.698-2.77c-3.688-3.697-3.688-9.708 0-13.397a9.427 9.427 0 0 1 6.698-2.778c2.53 0 4.91.991 6.697 2.778a9.418 9.418 0 0 1 2.777 6.698c0 2.525-.99 4.905-2.777 6.699m-10.082-19.856c.839 0 1.526.68 1.526 1.519 0 .839-.687 1.526-1.526 1.526a1.525 1.525 0 0 1-1.519-1.526c0-.84.68-1.52 1.519-1.52m3.385 0c.839 0 1.526.68 1.526 1.52 0 .839-.687 1.526-1.526 1.526a1.525 1.525 0 0 1-1.52-1.526c0-.84.68-1.52 1.52-1.52m3.384 0c.84 0 1.52.68 1.52 1.52 0 .839-.68 1.526-1.52 1.526a1.525 1.525 0 0 1-1.518-1.526c0-.84.68-1.52 1.518-1.52m-3.384-1.808c-8.014 0-14.53 6.525-14.53 14.54 0 8.014 6.516 14.532 14.53 14.532 8.013 0 14.537-6.518 14.537-14.532 0-8.015-6.524-14.54-14.537-14.54M51.621 142.951H23.936c-.6 0-1.085-.492-1.085-1.085 0-.6.485-1.085 1.085-1.085H51.62c.6 0 1.085.485 1.085 1.085 0 .593-.484 1.085-1.085 1.085M26.366 175.51v-14.597c0-.6.484-1.085 1.085-1.085h1.28c.528-4.52 4.39-8.036 9.048-8.036 4.657 0 8.52 3.515 9.047 8.036h1.28c.593 0 1.085.485 1.085 1.085v14.597c0 .6-.492 1.086-1.085 1.086H27.451c-.6 0-1.085-.485-1.085-1.086m25.255 8.428H23.936c-.6 0-1.085-.485-1.085-1.085s.485-1.085 1.085-1.085H51.62c.6 0 1.085.484 1.085 1.085 0 .6-.484 1.085-1.085 1.085M37.78 190.93a3.278 3.278 0 0 1-3.277-3.276 3.277 3.277 0 0 1 3.277-3.27c1.8 0 3.269 1.468 3.269 3.27a3.277 3.277 0 0 1-3.27 3.276m-3.435-53.42h6.864c.6 0 1.085.485 1.085 1.086 0 .593-.485 1.085-1.085 1.085h-6.864c-.6 0-1.085-.492-1.085-1.085 0-.6.485-1.086 1.085-1.086m12.801-1.113H28.413c-3.79 0-6.871 3.081-6.871 6.864V184.4a6.878 6.878 0 0 0 6.87 6.871h18.732c3.79 0 6.871-3.081 6.871-6.871v-41.138c0-3.783-3.08-6.864-6.87-6.864"/>
        <path fill="#F66262" d="M44.642 159.827H30.915c.52-3.32 3.4-5.866 6.864-5.866s6.342 2.546 6.863 5.866M359.9 44.314c-3.29 0-5.966-2.684-5.966-5.975 0-.89.195-1.75.586-2.568a1.088 1.088 0 0 1 1.96.94 3.675 3.675 0 0 0-.376 1.628c0 2.098 1.7 3.805 3.797 3.805a3.803 3.803 0 0 0 3.428-5.432 1.08 1.08 0 0 1 .506-1.447 1.088 1.088 0 0 1 1.446.506c.391.818.586 1.678.586 2.568 0 3.291-2.676 5.975-5.966 5.975m0-12.521a6.553 6.553 0 0 0-6.546 6.546 6.553 6.553 0 0 0 6.546 6.546 6.553 6.553 0 0 0 6.545-6.546 6.553 6.553 0 0 0-6.545-6.546"/>
        <path fill="#1CCE9E" d="M359.9 22.932a5.973 5.973 0 0 1-5.966-5.968c0-.68.116-1.353.354-2.011a1.09 1.09 0 0 1 1.389-.658c.564.202.853.824.65 1.389a3.801 3.801 0 0 0 3.573 5.078 3.801 3.801 0 0 0 3.798-3.798c0-.427-.073-.86-.225-1.28a1.088 1.088 0 0 1 .658-1.39 1.088 1.088 0 0 1 1.382.659c.239.658.354 1.33.354 2.01a5.973 5.973 0 0 1-5.966 5.969m0-12.515a6.553 6.553 0 0 0-6.546 6.547 6.553 6.553 0 0 0 6.546 6.546 6.553 6.553 0 0 0 6.545-6.546 6.553 6.553 0 0 0-6.545-6.547"/>
        <path fill="#F66262" d="M329.554 8.472v5.91h-5.91v-3.748a10.567 10.567 0 0 0 2.163-2.162h3.747zM243.518 136.34c0 .6-.485 1.085-1.085 1.085h-20.858c-.6 0-1.085-.485-1.085-1.085v-18.468c0-.47.303-.89.752-1.034.441-.145.933.014 1.208.398a24.076 24.076 0 0 0 19.513 10.011h.47c.6 0 1.085.485 1.085 1.085v8.008zm-24.88 2.936h26.724v-26.728h-26.724v26.728z"/>
        <path fill="#1CCE9E" d="M73.492 140.231v2.264a2.875 2.875 0 0 1-2.879 2.872h-2.256a2.88 2.88 0 0 1-2.879-2.872v-2.264a2.88 2.88 0 0 1 2.879-2.871h2.256a2.875 2.875 0 0 1 2.879 2.871M10.071 140.231v2.264a2.874 2.874 0 0 1-2.87 2.872H4.935a2.874 2.874 0 0 1-2.87-2.872v-2.264a2.874 2.874 0 0 1 2.87-2.871H7.2a2.874 2.874 0 0 1 2.871 2.871"/>
        <path fill="#F66262" d="M304.24 52.408c0 .6-.484 1.085-1.084 1.085h-7.558c-.6 0-1.085-.484-1.085-1.085v-1.591a4.337 4.337 0 0 1 3.688-4.268l4.76-.86c.317-.051.643.028.889.238.246.203.39.514.39.832v5.65zm3.768-13.476a4.494 4.494 0 0 1-3.956-2.343l-4.382-8.037a3.826 3.826 0 0 0-3.349-1.99h-26.362a3.815 3.815 0 0 0-3.341 1.99l-1.208 2.2a102.204 102.204 0 0 1 5.916 6.09h29.4c.6 0 1.084.484 1.084 1.085 0 .593-.484 1.085-1.085 1.085h-27.504a102.432 102.432 0 0 1 8.925 12.311h8.136c.6 0 1.085.485 1.085 1.085s-.485 1.085-1.085 1.085h-6.835c.97 1.65 1.895 3.335 2.77 5.042h16.873c.6 0 1.085.485 1.085 1.085s-.484 1.085-1.085 1.085h-2.878v1.035a2.71 2.71 0 0 0 2.705 2.705h2.119a2.706 2.706 0 0 0 2.705-2.705V45.696c0-1.331.723-2.576 1.88-3.234l1.172-.665c.014-.007.036-.022.058-.03v-2.835h-2.843z"/>
        <path fill="#64DAF8" d="M48.143 24.639h-2.611c-.6 0-1.085-.485-1.085-1.085s.484-1.085 1.085-1.085h2.61c.6 0 1.085.484 1.085 1.085 0 .6-.484 1.085-1.084 1.085zm0 4.882h-2.611c-.6 0-1.085-.484-1.085-1.085 0-.593.484-1.085 1.085-1.085h2.61c.6 0 1.085.492 1.085 1.085 0 .6-.484 1.085-1.084 1.085zm0 4.89h-2.611c-.6 0-1.085-.492-1.085-1.085 0-.6.484-1.085 1.085-1.085h2.61c.6 0 1.085.485 1.085 1.085 0 .593-.484 1.085-1.084 1.085zm-6.01-15.168c0 .6-.485 1.085-1.085 1.085a1.088 1.088 0 0 1-1.085-1.085V16.63c0-.6.492-1.085 1.085-1.085.6 0 1.084.485 1.084 1.085v2.612zm0 21.187c0 .6-.485 1.085-1.085 1.085a1.088 1.088 0 0 1-1.085-1.085v-2.612c0-.593.492-1.085 1.085-1.085.6 0 1.084.492 1.084 1.085v2.612zm-4.882 0c0 .6-.485 1.085-1.085 1.085s-1.085-.485-1.085-1.085v-2.612c0-.593.485-1.085 1.085-1.085s1.085.492 1.085 1.085v2.612zm-4.882 0c0 .6-.485 1.085-1.085 1.085s-1.085-.485-1.085-1.085v-2.612c0-.593.485-1.085 1.085-1.085s1.085.492 1.085 1.085v2.612zm-5.417-15.791H24.34a1.088 1.088 0 0 1-1.085-1.085c0-.6.492-1.085 1.085-1.085h2.61c.601 0 1.086.484 1.086 1.085 0 .6-.485 1.085-1.085 1.085zm0 4.882H24.34a1.088 1.088 0 0 1-1.085-1.085c0-.593.492-1.085 1.085-1.085h2.61c.601 0 1.086.492 1.086 1.085 0 .6-.485 1.085-1.085 1.085zm0 4.89H24.34a1.093 1.093 0 0 1-1.085-1.085c0-.6.492-1.085 1.085-1.085h2.61c.601 0 1.086.485 1.086 1.085 0 .593-.485 1.085-1.085 1.085zm3.247-17.78c0-.6.485-1.085 1.085-1.085s1.085.485 1.085 1.085v2.612c0 .6-.485 1.085-1.085 1.085s-1.085-.485-1.085-1.085V16.63zm2.922 7.118a1.081 1.081 0 0 1 1.034-.745h6.365c.6 0 1.085.485 1.085 1.085v8.702c0 .6-.485 1.085-1.085 1.085h-8.7c-.601 0-1.086-.485-1.086-1.085v-6.366c0-.47.297-.882.738-1.034a2.59 2.59 0 0 0 1.649-1.642zm1.96-7.118c0-.6.485-1.085 1.085-1.085s1.085.485 1.085 1.085v2.612c0 .6-.485 1.085-1.085 1.085s-1.085-.485-1.085-1.085V16.63zm30.231-8.37H7.172c-.999 0-1.809.811-1.809 1.802v37.383c0 1.1.89 1.99 1.99 1.99h57.786c1.092 0 1.981-.89 1.981-1.99V10.063c0-.99-.81-1.801-1.808-1.801z"/>
        <path fill="#1CCE9E" d="M80.399 26.946v4.702c0 4.246-3.45 7.697-7.695 7.697H69.29V19.25h3.414c4.245 0 7.695 3.45 7.695 7.696"/>
        <path fill="#64DAF8" d="M347.577 104.577c0 4.716-3.559 8.615-8.13 9.15v9.064h5.28c.6 0 1.085.485 1.085 1.085s-.485 1.085-1.085 1.085h-12.729c-.6 0-1.085-.484-1.085-1.085 0-.6.485-1.085 1.085-1.085h5.28v-9.063a9.218 9.218 0 0 1-8.13-9.15v-4.5c0-.6.485-1.085 1.085-1.085s1.085.484 1.085 1.085v4.5c0 3.883 3.16 7.045 7.045 7.045 3.883 0 7.044-3.162 7.044-7.046v-4.5c0-.6.484-1.084 1.085-1.084.593 0 1.085.484 1.085 1.085v4.5zm-14.284-8.999c0-2.799 2.27-5.07 5.07-5.07a5.076 5.076 0 0 1 5.07 5.07v9c0 2.798-2.279 5.07-5.07 5.07a5.072 5.072 0 0 1-5.07-5.07v-9zm-18.002 35.56h46.143V84.33H315.29v46.809z"/>
        <g stroke="#008FFF" stroke-linejoin="round" stroke-width="2">
            <path d="M182.898 219.68h19.486"/>
            <path stroke-linecap="round" d="M203.321 342.704h-52.116c-4.3 0-7.783-3.478-7.783-7.77V219.651c0-4.292 3.484-7.771 7.783-7.771h82.872c4.299 0 7.784 3.48 7.784 7.77v36.954"/>
            <path d="M182.898 334.905h19.486"/>
            <path stroke-linecap="round" d="M143.422 227.479h98.439M202.384 327.106h-58.962M165.285 251.715h-8.766a2.335 2.335 0 0 1-2.337-2.333v-8.752a2.335 2.335 0 0 1 2.337-2.333h8.766a2.335 2.335 0 0 1 2.336 2.333v8.752a2.335 2.335 0 0 1-2.336 2.333zM186.115 251.715h-8.766a2.335 2.335 0 0 1-2.337-2.333v-8.752a2.335 2.335 0 0 1 2.337-2.333h8.766a2.335 2.335 0 0 1 2.336 2.333v8.752a2.335 2.335 0 0 1-2.336 2.333zM206.945 251.715h-8.766a2.335 2.335 0 0 1-2.337-2.333v-8.752a2.335 2.335 0 0 1 2.337-2.333h8.766a2.335 2.335 0 0 1 2.336 2.333v8.752a2.335 2.335 0 0 1-2.336 2.333zM165.285 273.414h-8.766a2.335 2.335 0 0 1-2.337-2.333v-8.752a2.335 2.335 0 0 1 2.337-2.333h8.766a2.335 2.335 0 0 1 2.336 2.333v8.752a2.335 2.335 0 0 1-2.336 2.333zM186.115 273.414h-8.766a2.335 2.335 0 0 1-2.337-2.333v-8.752a2.335 2.335 0 0 1 2.337-2.333h8.766a2.335 2.335 0 0 1 2.336 2.333v8.752a2.335 2.335 0 0 1-2.336 2.333zM165.285 295.113h-8.766a2.335 2.335 0 0 1-2.337-2.333v-8.752a2.335 2.335 0 0 1 2.337-2.333h8.766a2.335 2.335 0 0 1 2.336 2.333v8.752a2.335 2.335 0 0 1-2.336 2.333zM186.115 295.113h-8.766a2.335 2.335 0 0 1-2.337-2.333v-8.752a2.335 2.335 0 0 1 2.337-2.333h8.766a2.335 2.335 0 0 1 2.336 2.333v8.752a2.335 2.335 0 0 1-2.336 2.333zM228.61 276.483v-12.945h5.075a5.072 5.072 0 0 1 5.077 5.068M259.03 286.74c-.25 9.598-1.843 19.125-4.793 28.271-.954 2.957-1.41 5.283-1.41 5.283h-21.805M228.61 263.538v-13.464a5.072 5.072 0 0 0-5.077-5.068 5.072 5.072 0 0 0-5.076 5.068v37.522l-3.5-9.093a6.018 6.018 0 0 0-5.617-3.852 6.013 6.013 0 0 0-6.019 6.009c0 6.085 1.598 12.075 4.727 17.297 1.199 2 2.636 4.059 4.324 5.942 6.239 6.961 7.89 16.395 7.89 16.395"/>
            <path stroke-linecap="round" d="M238.761 280.269v-12.945h5.076a5.072 5.072 0 0 1 5.077 5.067v12.274"/>
            <path stroke-linecap="round" d="M248.913 273.796h5.076a5.072 5.072 0 0 1 5.077 5.068v7.877M216.274 342.704h39.36v-15.598h-39.36z"/>
            <path stroke-linecap="round" d="M248.356 334.905a1.47 1.47 0 0 0-2.94 0 1.47 1.47 0 1 0 2.94 0zM85.3 179.539h32.048v-19.2H85.3zM85.3 205.138h32.048v-19.2H85.3zM85.3 230.737h32.048v-19.2H85.3zM91.71 166.74h19.228M91.71 173.14h9.614M91.71 192.339h19.228M91.71 198.738h9.614M91.71 217.937h19.228M91.71 224.337h9.614M75.685 203.538l4.807 4.8-4.807 4.8"/>
            <path stroke-linecap="round" d="M80.492 208.338h-9.614a3.202 3.202 0 0 1-3.205-3.2v-31.999c0-1.767 1.435-3.2 3.205-3.2h14.421M126.963 187.539l-4.807-4.8 4.807-4.8"/>
            <path stroke-linecap="round" d="M122.155 182.739h9.615a3.202 3.202 0 0 1 3.205 3.2v31.998c0 1.768-1.435 3.2-3.205 3.2h-14.422M280.934 166.07h-34.137c-.76 0-1.375.615-1.375 1.373v28.582c0 .758.615 1.372 1.375 1.372h6.086v9.633a4.05 4.05 0 0 0 4.053 4.047 4.05 4.05 0 0 0 4.053-4.047v-9.633h5.67v9.633a4.05 4.05 0 0 0 4.052 4.047 4.05 4.05 0 0 0 4.053-4.047v-9.633h6.17c.76 0 1.375-.614 1.375-1.372v-28.582c0-.758-.616-1.373-1.375-1.373zM238.376 166.063a4.05 4.05 0 0 0-4.053 4.047v16.436a4.05 4.05 0 0 0 4.053 4.047 4.05 4.05 0 0 0 4.053-4.047V170.11a4.05 4.05 0 0 0-4.053-4.047zM289.355 166.063a4.05 4.05 0 0 0-4.053 4.047v16.436a4.05 4.05 0 0 0 4.053 4.047 4.05 4.05 0 0 0 4.053-4.047V170.11a4.05 4.05 0 0 0-4.053-4.047zM255.386 153.556c.86 0 1.558.696 1.558 1.555 0 .86-.698 1.556-1.558 1.556a1.557 1.557 0 0 1 0-3.111zm18.437 1.555c0 .86-.698 1.556-1.558 1.556a1.557 1.557 0 0 1 0-3.111c.86 0 1.558.696 1.558 1.555zm-26.75 7.69h33.504c.875 0 1.526-.804 1.347-1.658-1.109-5.274-4.471-9.718-9.035-12.285l2.865-5.16a.723.723 0 1 0-1.268-.701l-2.886 5.198a18.444 18.444 0 0 0-7.775-1.706c-2.777 0-5.412.61-7.775 1.706l-2.886-5.199a.723.723 0 1 0-1.267.702l2.864 5.16c-4.563 2.567-7.926 7.011-9.034 12.285a1.375 1.375 0 0 0 1.346 1.658zM107.043 72.41l.05 19.48v10.732c0 47.934 39.057 86.93 87.066 86.93h31.702M144.718 15.171C159.397 6.87 176.364 2.128 194.44 2.128M268.684 112.247h7.06M268.684 120.52h7.06M268.684 128.795h7.06M282.163 102.622c0-.362-.002-.723-.007-1.084"/>
            <path stroke-dasharray="2.294782711111981,6.885108740433402" stroke-linecap="round" d="M281.837 95.006c-3.866-44.961-41.645-80.25-87.678-80.25 0 0-19.527-1.593-39.377 8.565"/>
            <path stroke-linecap="round" d="M151.905 24.878a78.9 78.9 0 0 0-.941.546M124.468 76.2c-.128.337-.254.676-.377 1.015"/>
            <path stroke-dasharray="2.291739246119624,6.875977827155071" stroke-linecap="round" d="M122.138 83.442a74.315 74.315 0 0 0-2.48 19.096c0 41.041 33.322 74.312 74.429 74.312h26.134"/>
            <path stroke-linecap="round" d="M223.492 176.85h1.085M268.328 97.227a75.881 75.881 0 0 0-.084-1.081"/>
            <path stroke-dasharray="2.348043348478234,7.043369438337243" stroke-linecap="round" d="M267.376 89.515c-6.167-34.832-36.634-61.29-73.29-61.29-12.406 0-24.103 3.03-34.388 8.39"/>
            <path stroke-linecap="round" d="M156.766 38.228c-.312.182-.624.365-.934.55M284.798 57.839h13.557v2.116a3.79 3.79 0 0 0 3.793 3.787h2.12a3.789 3.789 0 0 0 3.792-3.787v-16.02c0-.947.509-1.821 1.333-2.29l1.167-.663a.921.921 0 0 0 .606-.865v-3.1a.922.922 0 0 0-.923-.92h-3.006a3.425 3.425 0 0 1-3.005-1.782l-4.384-8.025a4.897 4.897 0 0 0-4.298-2.547H269.173c-1.791 0-3.44.976-4.297 2.546l-1.582 2.895M269.902 36.171h30.054"/>
            <path stroke-linecap="round" d="M302.383 50.64h-7.562v-1.592c0-1.6 1.177-2.957 2.762-3.188l4.8-.865v5.644zM298.355 57.839h3.967M280.806 50.64h8.7M343.977 156.59a8.398 8.398 0 0 0-11.864 0 8.367 8.367 0 0 0 0 11.844 8.398 8.398 0 0 0 11.864 0 8.366 8.366 0 0 0 0-11.845z"/>
            <path stroke-linecap="round" d="M340.038 160.522a2.821 2.821 0 0 0-3.985 0 2.81 2.81 0 0 0 0 3.98 2.821 2.821 0 0 0 3.985 0 2.81 2.81 0 0 0 0-3.98z"/>
            <path stroke-linecap="round" d="M353.672 162.086c0-8.617-6.996-15.602-15.627-15.602-8.63 0-15.626 6.985-15.626 15.602 0 8.616 6.997 15.602 15.626 15.602 8.63 0 15.627-6.986 15.627-15.602z"/>
            <path stroke-linecap="round" d="M335.097 150.891a.436.436 0 1 0-.872.001.436.436 0 0 0 .872 0zM338.483 150.891a.436.436 0 1 0-.873.001.436.436 0 0 0 .873 0zM341.868 150.891a.436.436 0 1 0-.872.001.436.436 0 0 0 .872 0zM334.074 177.237v5.694h7.944v-5.694M23.018 180.923h27.703M50.722 139.984H23.018M27.498 190.415H46.24c4.396 0 7.959-3.557 7.959-7.946v-41.085c0-4.387-3.563-7.945-7.958-7.945H27.498c-4.395 0-7.958 3.558-7.958 7.945v41.086c0 4.388 3.563 7.945 7.958 7.945z"/>
            <path stroke-linecap="round" d="M34.68 185.722a2.19 2.19 0 0 1 2.19-2.188 2.188 2.188 0 0 1 0 4.375c-1.21 0-2.19-.98-2.19-2.187zM40.304 136.718h-6.868M32.619 166.148l3.927 3.496 5.662-6.914"/>
            <path stroke-linecap="round" d="M26.539 173.591h20.663v-14.58H26.539zM44.91 159.01c0-4.433-3.6-8.027-8.04-8.027-4.44 0-8.04 3.594-8.04 8.027"/>
            <path stroke-linecap="round" d="M26.539 173.591h20.663v-14.58H26.539zM351.527 36.588c0-4.21 3.417-7.622 7.633-7.622 4.215 0 7.633 3.412 7.633 7.622 0 4.209-3.418 7.621-7.633 7.621-4.216 0-7.633-3.412-7.633-7.621z"/>
            <path stroke-linecap="round" d="M354.754 34.491a4.84 4.84 0 0 0-.48 2.097 4.889 4.889 0 0 0 4.886 4.879 4.889 4.889 0 0 0 4.886-4.88 4.83 4.83 0 0 0-.48-2.096M351.527 15.235c0-4.21 3.417-7.622 7.633-7.622 4.215 0 7.633 3.412 7.633 7.622 0 4.209-3.418 7.621-7.633 7.621-4.216 0-7.633-3.412-7.633-7.621z"/>
            <path stroke-linecap="round" d="M354.564 13.594a4.839 4.839 0 0 0-.29 1.64 4.888 4.888 0 0 0 4.886 4.88 4.888 4.888 0 0 0 4.886-4.88c0-.576-.106-1.127-.29-1.64"/>
            <path stroke-linecap="round" d="M355.017 2.128h8.286c4.672 0 8.46 3.783 8.46 8.448v29.242c0 4.665-3.788 8.447-8.46 8.447h-8.286c-4.672 0-8.46-3.782-8.46-8.447V10.576c0-4.665 3.788-8.448 8.46-8.448zM355.266 55.896v-7.631M363.054 48.265v7.631M346.557 63.671v-1.163c0-3.652 2.965-6.613 6.623-6.613h11.96c3.658 0 6.623 2.961 6.623 6.613v1.163M333.344 17.196H318.34V6.238a6.357 6.357 0 0 0 4.028-4.022h10.976v14.98z"/>
            <path stroke-linecap="round" d="M321.802 13.739V8.356a9.887 9.887 0 0 0 2.688-2.684h5.392v8.067h-8.08zM308.74 1.806h4.085M308.74 9.433h4.085M308.74 17.06h4.085M318.066 26.634v-4.078M325.705 26.634v-4.078M333.344 26.634v-4.078M216.74 138.482h28.91v-28.865h-28.91zM216.74 115.381h-8.22M216.74 124.05h-8.22M216.74 132.718h-8.22M206.1 135.136a2.42 2.42 0 0 0 2.42-2.418 2.42 2.42 0 0 0-2.42-2.418 2.42 2.42 0 0 0-2.422 2.418 2.42 2.42 0 0 0 2.421 2.418zM206.1 126.467a2.42 2.42 0 0 0 2.42-2.417 2.42 2.42 0 0 0-2.42-2.418 2.42 2.42 0 0 0-2.422 2.418 2.42 2.42 0 0 0 2.421 2.417zM206.1 117.799a2.42 2.42 0 0 0 2.42-2.417 2.42 2.42 0 0 0-2.42-2.419 2.42 2.42 0 0 0-2.422 2.419 2.42 2.42 0 0 0 2.421 2.417zM239.38 109.574v-8.207M230.699 109.574v-8.207M228.277 98.95a2.42 2.42 0 0 0 2.421 2.416 2.42 2.42 0 0 0 2.422-2.417 2.42 2.42 0 0 0-2.422-2.417 2.42 2.42 0 0 0-2.42 2.417zM236.96 98.95a2.42 2.42 0 0 0 2.42 2.416 2.42 2.42 0 0 0 2.422-2.417 2.42 2.42 0 0 0-2.422-2.417 2.42 2.42 0 0 0-2.42 2.417z"/>
            <path stroke-linecap="round" d="M216.862 104.171c1.037-1.676 1.902-3.449 2.512-5.328 2.861-8.802 4.542-26.06-14.433-36.18 0 0-21.397-11.04-37.76 3.94-3.022 2.768-5.29 6.288-6.361 10.24-.807 2.973-1.327 6.896-.759 11.64.065.544.163 1.08.259 1.62.225 1.283.57 4.859-1.697 8.303l-4.36 6.324s-1.297 2.766 1.945 3.354c0 0 1 .089 1.765.415.487.209.637.831.29 1.232-.482.559-.924 1.484.452 2.23a.812.812 0 0 1 .322 1.13c-.44.756-.689 1.882 1.195 2.442.4.118.661.506.582.915-.444 2.276-1.226 8.973 4.94 8.875l5.095-.496c3.59-.35 6.887 2.086 7.52 5.632.414 2.314.702 3.883.702 8.294"/>
            <path stroke-linecap="round" d="M208.389 85.901a4.315 4.315 0 0 0 1.266-4.586 4.328 4.328 0 0 0-3.725-2.968 4.316 4.316 0 0 0-.71-4.705 4.334 4.334 0 0 0-4.613-1.198 4.317 4.317 0 0 0-2.567-4.008 4.329 4.329 0 0 0-4.7.778 4.328 4.328 0 0 0-3.977-2.62 4.328 4.328 0 0 0-3.978 2.62 4.331 4.331 0 0 0-4.701-.778 4.318 4.318 0 0 0-2.566 4.008 4.331 4.331 0 0 0-4.612 1.198 4.314 4.314 0 0 0-.712 4.705 4.326 4.326 0 0 0-3.724 2.968 4.316 4.316 0 0 0 1.266 4.586 4.318 4.318 0 0 0-2.194 4.224 4.32 4.32 0 0 0 3.026 3.675 4.316 4.316 0 0 0-.285 4.75 4.331 4.331 0 0 0 4.262 2.129 4.316 4.316 0 0 0 1.676 4.454 4.334 4.334 0 0 0 4.76.214 4.331 4.331 0 0 0 7.782 1.652 4.329 4.329 0 0 0 7.78-1.652 4.334 4.334 0 0 0 4.761-.214 4.317 4.317 0 0 0 1.676-4.454 4.33 4.33 0 0 0 4.26-2.13 4.315 4.315 0 0 0-.283-4.749 4.322 4.322 0 0 0 3.026-3.675 4.32 4.32 0 0 0-2.194-4.224z"/>
            <path stroke-linecap="round" d="M177.312 92.873c2.224 0 4.026-1.8 4.026-4.022 0-.628-.148-1.22-.406-1.75.78.176 1.632.161 2.533-.214 1.312-.548 2.329-1.696 2.624-3.084.18-.85.09-1.656-.178-2.376.091.004.18.014.272.014.19 0 .378-.009.562-.026 3.943-.364 5.03-5.558 1.715-7.721-1.535-1.003-2.98-2.472-3.075-4.48M186.183 81.44s-3.75-1.323-5.153-5.281M200.607 72.444s-2.558 8.419-10.305 5.884M208.389 85.901s-4.78-.29-6.06 4.917c0 0-5.022-2.688-9.55.07-.975.595-1.795 1.415-2.45 2.35-1.21 1.726-2.85 4.98-1.494 8.676M206.026 78.12s-9.974 1.829-9.732 11.582M175.146 100.679s5.29-6.558 13.446-3.734M197.144 105.347s-2.42-1.64-2.43-4.846c-.01-2.86 3.109-4.734 5.544-3.23l.073.046M185.166 85.65s5.524.517 6.038 6.519M180.932 87.1s-2.433-1.145-4.079-3.189M220.759 116.02v18.45h20.873v-8.002h-.47a25.135 25.135 0 0 1-20.403-10.447zM67.464 134.4h2.262a3.958 3.958 0 0 1 3.961 3.955v2.258a3.958 3.958 0 0 1-3.961 3.955h-2.261a3.958 3.958 0 0 1-3.962-3.955v-2.258a3.958 3.958 0 0 1 3.96-3.955zM4.014 134.4h2.262a3.958 3.958 0 0 1 3.96 3.955v2.258a3.958 3.958 0 0 1-3.96 3.955H4.014a3.958 3.958 0 0 1-3.961-3.955v-2.258a3.958 3.958 0 0 1 3.96-3.955zM52.243 74.705a6.023 6.023 0 0 1 6.042 5.814l.01.23.215.082c3.787 1.468 6.331 5.183 6.331 9.249 0 5.476-4.46 9.929-9.942 9.929H22.017c-2.354 0-4.653-.623-6.649-1.803a13.111 13.111 0 0 1-6.47-11.282c0-7.213 5.885-13.08 13.119-13.08h.244l.112-.228c2.125-5.757 7.68-9.625 13.823-9.625 6.537 0 12.358 4.377 14.152 10.644l.093.328.328-.085c.45-.114.946-.173 1.474-.173z"/>
            <path stroke-linecap="round" d="M35.782 92.706a1.085 1.085 0 1 1 2.17.002 1.085 1.085 0 0 1-2.17-.002zM41.138 89.3a6.001 6.001 0 0 0-4.268-1.772c-1.668 0-3.18.671-4.275 1.764M44.349 86.095a10.553 10.553 0 0 0-7.48-3.092 10.55 10.55 0 0 0-7.476 3.092M47.732 82.716A15.362 15.362 0 0 0 36.87 78.23c-4.238 0-8.083 1.72-10.863 4.487M36.867 100.01l.003 19.138M36.87 133.295v-14.147M5.145 134.4v-8.91a6.029 6.029 0 0 1 6.033-6.024h51.384a6.029 6.029 0 0 1 6.033 6.024v8.91M297.95 175.519a42.254 42.254 0 0 0 18.304 22.17c1.845 1.09 4.178-.254 4.178-2.394v-6.705a5.664 5.664 0 0 1 5.668-5.659h18.131M295.464 130.624v-27.63c0-55.706-45.23-100.866-101.024-100.866"/>
            <path stroke-linecap="round" d="M304.268 63.781h72.227c1.7 0 3.078 1.376 3.078 3.074v94.484c0 15.042-7.857 28.244-19.68 35.703-1.838 1.158-4.234-.189-4.234-2.359v-6.092a5.664 5.664 0 0 0-5.669-5.66h-5.988M109.582 34.112h-28.98M80.602 21.838h37.077M109.582 34.113v22.433h16.194V29.923c0-4.465-3.625-8.085-8.097-8.085M111.26 62.088a6.413 6.413 0 0 0 6.419 6.408c3.545 0 6.419-2.869 6.419-6.408M39.613 31.045h-8.708v-6.36a3.69 3.69 0 0 0 2.338-2.335h6.37v8.695zM44.628 21.819h2.613M44.628 26.697h2.613M44.628 31.576h2.613M23.43 21.819h2.613M23.43 26.697h2.613M23.43 31.576h2.613M30.373 17.51v-2.608M35.259 17.51v-2.608M40.145 17.51v-2.608M30.373 38.676v-2.609M35.259 38.676v-2.609M40.145 38.676v-2.609"/>
            <path stroke-linecap="round" d="M64.242 48.75H6.428a3.071 3.071 0 0 1-3.074-3.068V8.347a2.892 2.892 0 0 1 2.894-2.89h58.174a2.892 2.892 0 0 1 2.894 2.89v37.335a3.07 3.07 0 0 1-3.074 3.069zM71.811 38.676h-4.495V16.434h4.495c4.855 0 8.79 3.929 8.79 8.776v4.69c0 4.846-3.935 8.776-8.79 8.776zM44.175 48.75v9.721M26.495 58.471v-9.72M162.464 61.468c8.237-7.54 18.806-10.782 30.566-9.37 8.403 1.008 14.452 4.033 15.115 4.374l.084.044c10.037 5.353 16.574 13.347 18.906 23.115M233.821 1.851h.873M239.773 1.851h51.637M293.95 1.851h.872M260.247 14.665h.873M266.303 14.665h25.054M293.95 14.665h.872M333.32 39.336v.871M333.32 45.309v11.053M333.32 58.913v.871M325.836 39.336v.871M325.836 45.309v11.053M325.836 58.913v.871M332.824 77.604h9.57M355.479 138.019h-35.74c-3.48 0-6.3-2.816-6.3-6.29V80.064c0-3.474 2.82-6.29 6.3-6.29h35.74c3.48 0 6.3 2.816 6.3 6.29v51.663c0 3.475-2.82 6.29-6.3 6.29zM332.824 134.189h9.57M313.438 81.434h48.342M361.78 130.359h-48.342"/>
            <path stroke-linecap="round" d="M337.609 106.726a3.989 3.989 0 0 1-3.987-3.98v-8.992a3.989 3.989 0 0 1 3.987-3.98 3.989 3.989 0 0 1 3.987 3.98v8.991a3.989 3.989 0 0 1-3.987 3.981z"/>
            <path stroke-linecap="round" d="M329.477 98.25v4.496c0 4.476 3.648 8.119 8.132 8.119 4.483 0 8.132-3.643 8.132-8.12V98.25M337.609 110.865v11.155M331.24 122.02h12.736"/>
            <path d="M266.374 273.331c32.812-16.526 59.374-43.694 75.187-76.988M43.123 196.343c18.797 39.58 52.788 70.503 94.41 85.181"/>
        </g>
    </g>
</svg>
